<?xml version="1.0" standalone="no"?>
<!DOCTYPE svg PUBLIC "-//W3C//DTD SVG 20010904//EN"
 "http://www.w3.org/TR/2001/REC-SVG-20010904/DTD/svg10.dtd">
<svg version="1.0" xmlns="http://www.w3.org/2000/svg"
 width="433.000000pt" height="82.000000pt" viewBox="0 0 433.000000 82.000000"
 preserveAspectRatio="xMidYMid meet">

<g transform="translate(0.000000,82.000000) scale(0.100000,-0.100000)"
fill="#000000" stroke="none">
<path d="M2626 705 c-78 -32 -123 -78 -192 -194 -31 -53 -67 -112 -79 -131
-120 -191 -137 -246 -89 -291 l26 -24 774 -3 c851 -3 837 -4 922 58 41 29 63
63 221 330 103 175 110 203 62 250 l-29 29 -778 1 -779 0 -59 -25z m254 -315
l0 -210 -49 0 c-31 0 -51 5 -54 13 -3 9 -8 9 -21 -2 -27 -22 -110 -19 -144 5
-37 28 -62 81 -62 134 0 115 103 192 194 145 15 -8 30 -15 32 -15 2 0 4 32 4
70 l0 70 50 0 50 0 0 -210z m268 80 c24 -11 50 -32 60 -50 9 -16 19 -30 22
-30 3 0 12 13 21 29 9 15 37 38 63 51 61 29 125 22 175 -18 l35 -28 27 30 c26
29 32 31 96 31 49 0 77 -5 96 -18 26 -17 27 -19 12 -47 -18 -35 -20 -35 -70
-14 -41 17 -65 13 -65 -10 0 -10 19 -21 52 -31 67 -19 98 -49 98 -91 0 -47 -9
-63 -44 -81 -41 -22 -142 -21 -185 1 -31 16 -35 16 -69 0 -77 -37 -186 -14
-220 47 -10 16 -19 29 -22 29 -3 0 -12 -13 -22 -29 -23 -41 -71 -63 -138 -64
-105 -1 -165 55 -165 153 0 71 21 105 85 138 54 27 101 28 158 2z"/>
<path d="M2692 395 c-52 -22 -56 -99 -7 -131 48 -31 103 16 91 80 -9 48 -42
68 -84 51z"/>
<path d="M3036 389 c-26 -21 -34 -65 -20 -104 10 -25 51 -37 77 -24 30 16 37
28 37 70 0 59 -52 91 -94 58z"/>
<path d="M3350 380 c-24 -24 -26 -67 -4 -98 18 -26 75 -30 94 -7 11 13 15 13
33 0 25 -17 54 -20 59 -5 2 7 15 5 35 -5 34 -17 109 -17 106 0 -1 5 -25 17
-55 27 -56 19 -98 57 -98 89 0 22 -17 24 -44 4 -17 -13 -22 -13 -42 0 -32 21
-60 19 -84 -5z"/>
<path d="M1350 595 c-15 -18 -5 -64 15 -72 45 -17 87 26 65 67 -13 24 -61 27
-80 5z"/>
<path d="M2080 385 l0 -205 45 0 45 0 0 205 0 205 -45 0 -45 0 0 -205z"/>
<path d="M167 473 c-4 -3 -7 -71 -7 -150 l0 -143 45 0 45 0 0 88 c0 102 14
132 60 132 46 0 60 -30 60 -132 l0 -88 45 0 45 0 0 88 c0 102 14 132 60 132
46 0 60 -30 60 -132 l0 -88 40 0 40 0 0 121 c0 120 0 121 -29 150 -19 19 -40
29 -59 29 -43 0 -91 -19 -103 -42 -10 -19 -11 -19 -36 7 -14 14 -37 28 -50 31
-32 8 -88 -3 -103 -21 -17 -20 -27 -19 -33 5 -4 15 -14 20 -39 20 -19 0 -38
-3 -41 -7z"/>
<path d="M755 466 c-33 -10 -40 -16 -37 -36 3 -33 5 -33 59 -22 53 12 95 -1
101 -29 2 -14 -9 -17 -62 -21 -86 -5 -120 -29 -124 -86 -4 -60 29 -92 95 -92
28 0 58 7 71 16 20 14 22 14 22 0 0 -12 11 -16 45 -16 l45 0 0 110 c0 60 -5
120 -11 134 -23 51 -115 70 -204 42z m125 -175 c0 -47 -79 -69 -103 -29 -17
27 9 48 59 48 37 0 44 -3 44 -19z"/>
<path d="M1054 464 c-80 -39 -85 -183 -9 -242 33 -26 100 -29 133 -6 21 15 22
14 22 -14 0 -16 -8 -36 -18 -45 -21 -20 -93 -23 -124 -6 -18 9 -24 8 -35 -7
-7 -10 -13 -23 -13 -29 0 -18 49 -37 110 -42 44 -4 64 0 100 19 25 13 51 34
57 48 9 17 13 78 13 183 l0 157 -40 0 c-26 0 -43 -5 -46 -14 -5 -12 -10 -12
-39 0 -44 18 -72 17 -111 -2z m133 -73 c34 -44 2 -131 -47 -131 -29 0 -70 44
-70 75 0 72 77 109 117 56z"/>
<path d="M1347 474 c-4 -4 -7 -72 -7 -151 l0 -143 45 0 46 0 -3 148 -3 147
-35 3 c-20 2 -39 0 -43 -4z"/>
<path d="M1557 470 c-41 -13 -58 -29 -80 -79 -33 -76 -6 -160 63 -196 56 -29
153 -14 189 29 12 14 16 12 41 -14 24 -25 36 -30 77 -30 28 0 58 7 71 16 20
14 22 14 22 0 0 -12 11 -16 45 -16 l45 0 0 110 c0 127 -12 162 -61 179 -40 14
-102 13 -153 -2 -45 -14 -52 -25 -33 -50 11 -16 19 -17 57 -8 50 11 92 -2 98
-30 2 -14 -9 -17 -62 -21 -80 -5 -119 -29 -124 -76 -4 -37 -4 -37 -43 -17 -27
14 -32 14 -51 0 -33 -22 -64 -18 -87 11 -28 36 -27 79 4 109 28 29 61 32 86 9
16 -15 20 -14 48 2 17 10 30 23 28 28 -13 38 -120 66 -180 46z m383 -185 c0
-42 -78 -64 -99 -28 -17 32 5 53 54 53 41 0 45 -2 45 -25z"/>
</g>
</svg>
